<svg xmlns="http://www.w3.org/2000/svg" fill="none" viewBox="0 0 68 68">
    <path fill="currentColor" fill-rule="evenodd"
        d="M44.092 12.04c3.56 0 6.274-2.374 6.274-6.105C50.196 2.374 47.653 0 44.092 0s-6.274 2.374-6.274 6.105c0 3.56 2.543 5.935 6.274 5.935Zm17.632 25.775c-3.73 0-6.104 2.713-6.104 6.274s2.374 6.274 6.104 6.274c3.561 0 6.105-2.713 6.105-6.274 0-3.73-2.374-6.274-6.105-6.274Zm-44.259 24.08c0-3.73 2.713-6.104 6.274-6.104 3.731 0 6.275 2.374 6.275 6.104C30.014 65.626 27.3 68 23.74 68s-6.275-2.544-6.275-6.105ZM6.105 30.014c3.73 0 6.104-2.713 6.104-6.274s-2.374-6.275-6.104-6.275C2.374 17.635 0 20.178 0 23.74c0 3.731 2.374 6.275 6.105 6.275ZM67.83 19.162v7.8H48.668V67.83h-7.8V48.668H0v-7.8h19.162V0h7.8v19.162H67.83ZM28.15 27.98v11.7h11.7v-11.7h-11.7Z"
        clip-rule="evenodd"></path>
</svg>