<svg xmlns="http://www.w3.org/2000/svg" fill="none" viewBox="0 0 191 24">
    <g clip-path="url(#__2KYsOMM__a)">
        <path fill="currentColor" fill-rule="evenodd"
            d="M188.016 5.357c1.509 0 2.684-1.186 2.684-2.695 0-1.508-1.144-2.662-2.668-2.662-1.525 0-2.685 1.182-2.685 2.678s1.16 2.679 2.669 2.679Zm.012-4.939c1.291 0 2.232.97 2.232 2.244h-.003c0 1.275-.964 2.276-2.244 2.276-1.281 0-2.238-.992-2.238-2.26 0-1.268.963-2.26 2.253-2.26Zm1.439 3.753-.668-1.024c.386-.158.599-.478.599-.925 0-.63-.469-1.04-1.259-1.04h-1.245v2.99h.653v-.91h.675l.593.91h.652Zm-.697-1.95c0 .334-.244.53-.669.53v.003h-.561V1.7h.561c.425 0 .669.19.669.523ZM3.445 12.844h9.598v-7.66h3.445v18.554h-3.445v-7.952H3.445v7.952H0V5.182h3.445v7.661Zm42.064 2.808V5.182h-3.395v10.336c0 3.816-1.696 5.461-4.69 5.461-2.996 0-4.72-1.641-4.72-5.46V5.181h-3.446v10.47c0 5.407 3.05 8.348 8.137 8.348 5.087 0 8.11-2.941 8.11-8.349h.004Zm22.98 1.83 7.235-12.299h2.837l.025 18.555h-3.258L75.3 11.436l-6.095 10.18h-1.537l-6.095-10.022v12.143h-3.287V5.182h2.837l7.366 12.298Zm32.177-12.299h-3.392l-8.349 18.555h3.55l1.205-2.83.624-1.465h.007l1.8-4.2 2.834-6.614 5.271 12.279 1.22 2.83h3.607l-8.377-18.555Zm32.336 18.555L122.77 11.173v12.564h-3.42V5.182h2.837l10.231 12.564V5.182h3.42v18.555h-2.836Zm19.217-18.555h-3.446v18.555h3.446V5.182Zm10.573 2.916V5.182h15.744v2.916h-6.149v15.639h-3.446V8.098h-6.149Z"
            clip-rule="evenodd"></path>
    </g>
    <defs>
        <clipPath id="__2KYsOMM__a">
            <path fill="currentColor" d="M0 0h190.7v24H0z"></path>
        </clipPath>
    </defs>
</svg>